# xmcd
#
# Track frame offsets: 
#        150
#        21271
#        47843
#        73817
#        92674
#        112777
#        134165
#        159253
#        181203
#
# Disc length: 2670 seconds
#
# Revision: 3
# Processed by: cddbd v1.5.1PL2 Copyright (c) Steve Scherf et al.
# Submitted via: ExactAudioCopy v0.90b4
#
DISCID=750a6c09
DTITLE=Novecento (feat. Stanley Jordan) - Dreams Of Peace
DYEAR=2004
DGENRE=Jazz
TTITLE0=Tell Me Something
TTITLE1=Flying On The Sky
TTITLE2=Too Close To The Sun
TTITLE3=Sky Flower
TTITLE4=Destination Of My Heart
TTITLE5=Spring
TTITLE6=Dreams Of Peace
TTITLE7=Easy Love
TTITLE8=I Can Show You Something
EXTD=YEAR: 2004
EXTT0=
EXTT1=
EXTT2=
EXTT3=
EXTT4=
EXTT5=
EXTT6=
EXTT7=
EXTT8=
PLAYORDER=
